<svg xmlns="http://www.w3.org/2000/svg" width="1200" height="320" viewBox="-220 255 1200 320"><defs></defs><g transform="translate(81.92 383.40) scale(0.6777)"><g transform="translate(-112.95 -36.14) scale(4.5179)"><path d="M50.00 92.00 L52.58 91.07 L54.88 89.93 L57.07 88.67 L59.18 87.28 L61.20 85.75 L63.14 84.05 L64.95 82.15 L66.62 80.05 L68.12 77.72 L69.39 75.17 L70.40 72.43 L71.11 69.54 L71.51 66.56 L71.60 63.54 L71.40 60.56 L70.95 57.65 L70.28 54.85 L69.43 52.19 L68.46 49.68 L67.39 47.31 L66.25 45.11 L65.09 43.05 L63.92 41.15 L62.78 39.40 L61.67 37.80 L60.61 36.36 L59.62 35.07 L58.70 33.93 L57.85 32.94 L57.06 32.08 L56.31 31.34 L55.58 30.67 L54.86 30.03 L54.15 29.37 L53.43 28.60 L52.74 27.69 L52.10 26.59 L51.53 25.26 L51.06 23.72 L50.71 21.96 L50.48 20.01 L50.34 17.89 L50.30 15.63 L50.29 13.23 L50.27 10.72 L50.00 8.00 L50.00 8.00 L47.42 8.93 L45.12 10.07 L42.93 11.33 L40.82 12.72 L38.80 14.25 L36.86 15.95 L35.05 17.85 L33.38 19.95 L31.88 22.28 L30.61 24.83 L29.60 27.57 L28.89 30.46 L28.49 33.44 L28.40 36.46 L28.60 39.44 L29.05 42.35 L29.72 45.15 L30.57 47.81 L31.54 50.32 L32.61 52.69 L33.75 54.89 L34.91 56.95 L36.08 58.85 L37.22 60.60 L38.33 62.20 L39.39 63.64 L40.38 64.93 L41.30 66.07 L42.15 67.06 L42.94 67.92 L43.69 68.66 L44.42 69.33 L45.14 69.97 L45.85 70.63 L46.57 71.40 L47.26 72.31 L47.90 73.41 L48.47 74.74 L48.94 76.28 L49.29 78.04 L49.52 79.99 L49.66 82.11 L49.70 84.37 L49.71 86.77 L49.73 89.28 L50.00 92.00 Z M54.06 79.55 L55.00 78.30 L55.87 77.04 L56.68 75.77 L57.40 74.49 L58.02 73.19 L58.54 71.87 L58.96 70.55 L59.25 69.21 L59.42 67.85 L59.47 66.49 L59.39 65.13 L59.18 63.77 L58.85 62.41 L58.40 61.06 L57.85 59.71 L57.20 58.38 L56.46 57.06 L55.65 55.74 L54.78 54.43 L53.85 53.14 L52.89 51.85 L51.90 50.56 L50.90 49.29 L49.91 48.02 L48.93 46.76 L47.98 45.51 L47.08 44.26 L46.23 43.03 L45.45 41.80 L44.74 40.58 L44.12 39.37 L43.59 38.17 L43.16 36.98 L42.83 35.80 L42.61 34.62 L42.48 33.44 L42.47 32.26 L42.56 31.07 L42.76 29.86 L43.07 28.65 L43.47 27.42 L43.98 26.18 L44.57 24.92 L45.25 23.65 L46.01 22.37 L46.82 21.07 L45.94 20.45 L45.00 21.70 L44.13 22.96 L43.32 24.23 L42.60 25.51 L41.98 26.81 L41.46 28.13 L41.04 29.45 L40.75 30.79 L40.58 32.15 L40.53 33.51 L40.61 34.87 L40.82 36.23 L41.15 37.59 L41.60 38.94 L42.15 40.29 L42.80 41.62 L43.54 42.94 L44.35 44.26 L45.22 45.57 L46.15 46.86 L47.11 48.15 L48.10 49.44 L49.10 50.71 L50.09 51.98 L51.07 53.24 L52.02 54.49 L52.92 55.74 L53.77 56.97 L54.55 58.20 L55.26 59.42 L55.88 60.63 L56.41 61.83 L56.84 63.02 L57.17 64.20 L57.39 65.38 L57.52 66.56 L57.53 67.74 L57.44 68.93 L57.24 70.14 L56.93 71.35 L56.53 72.58 L56.02 73.82 L55.43 75.08 L54.75 76.35 L53.99 77.63 L53.18 78.93 Z" fill="#2f6b4f" fill-rule="evenodd"></path></g><text x="285.9" y="189.7" dominant-baseline="central" text-anchor="start" font-family="Cormorant Garamond" font-weight="500" font-size="150" letter-spacing="15.00" fill="#221f1a">SELVA</text><rect x="866.1" y="120.7" width="2" height="138.0" fill="#b08d57"></rect><text x="931.1" y="189.7" dominant-baseline="central" text-anchor="start" font-family="Jost" font-weight="300" font-size="50" letter-spacing="24.00" fill="#b08d57">GARDEN</text></g></svg>
